<svg width="65" height="65" viewBox="0 0 65 65" fill="none" xmlns="http://www.w3.org/2000/svg">
<path opacity="0.1" d="M0 32.5C0 20.8268 0 14.9903 2.36157 10.5721C4.22624 7.08351 7.08351 4.22624 10.5721 2.36157C14.9903 0 20.8268 0 32.5 0V0C44.1732 0 50.0097 0 54.4279 2.36157C57.9165 4.22624 60.7738 7.08351 62.6384 10.5721C65 14.9903 65 20.8268 65 32.5V32.5C65 44.1732 65 50.0097 62.6384 54.4279C60.7738 57.9165 57.9165 60.7738 54.4279 62.6384C50.0097 65 44.1732 65 32.5 65V65C20.8268 65 14.9903 65 10.5721 62.6384C7.08351 60.7738 4.22624 57.9165 2.36157 54.4279C0 50.0097 0 44.1732 0 32.5V32.5Z" fill="#F2F2F2"/>
</svg>
