<svg width="65" height="65" viewBox="0 0 65 65" fill="none" xmlns="http://www.w3.org/2000/svg">
<path d="M32.3333 19C35.956 19 36.408 19.0133 37.8293 19.08C39.2493 19.1467 40.216 19.3693 41.0667 19.7C41.9467 20.0387 42.688 20.4973 43.4293 21.2373C44.1073 21.9039 44.6319 22.7101 44.9667 23.6C45.296 24.4493 45.52 25.4173 45.5867 26.8373C45.6493 28.2587 45.6667 28.7107 45.6667 32.3333C45.6667 35.956 45.6533 36.408 45.5867 37.8293C45.52 39.2493 45.296 40.216 44.9667 41.0667C44.6329 41.957 44.1082 42.7635 43.4293 43.4293C42.7626 44.1071 41.9564 44.6317 41.0667 44.9667C40.2173 45.296 39.2493 45.52 37.8293 45.5867C36.408 45.6493 35.956 45.6667 32.3333 45.6667C28.7107 45.6667 28.2587 45.6533 26.8373 45.5867C25.4173 45.52 24.4507 45.296 23.6 44.9667C22.7098 44.6326 21.9034 44.1079 21.2373 43.4293C20.5592 42.7629 20.0346 41.9566 19.7 41.0667C19.3693 40.2173 19.1467 39.2493 19.08 37.8293C19.0173 36.408 19 35.956 19 32.3333C19 28.7107 19.0133 28.2587 19.08 26.8373C19.1467 25.416 19.3693 24.4507 19.7 23.6C20.0336 22.7096 20.5584 21.9031 21.2373 21.2373C21.9036 20.559 22.7099 20.0343 23.6 19.7C24.4507 19.3693 25.416 19.1467 26.8373 19.08C28.2587 19.0173 28.7107 19 32.3333 19ZM32.3333 25.6667C30.5652 25.6667 28.8695 26.369 27.6193 27.6193C26.369 28.8695 25.6667 30.5652 25.6667 32.3333C25.6667 34.1014 26.369 35.7971 27.6193 37.0474C28.8695 38.2976 30.5652 39 32.3333 39C34.1014 39 35.7971 38.2976 37.0474 37.0474C38.2976 35.7971 39 34.1014 39 32.3333C39 30.5652 38.2976 28.8695 37.0474 27.6193C35.7971 26.369 34.1014 25.6667 32.3333 25.6667V25.6667ZM41 25.3333C41 24.8913 40.8244 24.4674 40.5118 24.1548C40.1993 23.8423 39.7754 23.6667 39.3333 23.6667C38.8913 23.6667 38.4674 23.8423 38.1548 24.1548C37.8423 24.4674 37.6667 24.8913 37.6667 25.3333C37.6667 25.7754 37.8423 26.1993 38.1548 26.5118C38.4674 26.8244 38.8913 27 39.3333 27C39.7754 27 40.1993 26.8244 40.5118 26.5118C40.8244 26.1993 41 25.7754 41 25.3333ZM32.3333 28.3333C33.3942 28.3333 34.4116 28.7548 35.1618 29.5049C35.9119 30.2551 36.3333 31.2725 36.3333 32.3333C36.3333 33.3942 35.9119 34.4116 35.1618 35.1618C34.4116 35.9119 33.3942 36.3333 32.3333 36.3333C31.2725 36.3333 30.2551 35.9119 29.5049 35.1618C28.7548 34.4116 28.3333 33.3942 28.3333 32.3333C28.3333 31.2725 28.7548 30.2551 29.5049 29.5049C30.2551 28.7548 31.2725 28.3333 32.3333 28.3333V28.3333Z" fill="white"/>
<path opacity="0.1" d="M0 32.5C0 20.8268 0 14.9903 2.36157 10.5721C4.22624 7.08351 7.08351 4.22624 10.5721 2.36157C14.9903 0 20.8268 0 32.5 0V0C44.1732 0 50.0097 0 54.4279 2.36157C57.9165 4.22624 60.7738 7.08351 62.6384 10.5721C65 14.9903 65 20.8268 65 32.5V32.5C65 44.1732 65 50.0097 62.6384 54.4279C60.7738 57.9165 57.9165 60.7738 54.4279 62.6384C50.0097 65 44.1732 65 32.5 65V65C20.8268 65 14.9903 65 10.5721 62.6384C7.08351 60.7738 4.22624 57.9165 2.36157 54.4279C0 50.0097 0 44.1732 0 32.5V32.5Z" fill="#F2F2F2"/>
</svg>
