<svg width="65" height="65" viewBox="0 0 65 65" fill="none" xmlns="http://www.w3.org/2000/svg">
<path d="M45.5494 23.5412C44.5315 23.9915 43.452 24.2872 42.3467 24.4186C43.5117 23.7218 44.3837 22.6253 44.8001 21.3332C43.7067 21.9839 42.5081 22.4399 41.2587 22.6866C40.4195 21.7887 39.3072 21.1932 38.0947 20.9927C36.8821 20.7922 35.6373 20.9979 34.5538 21.5778C33.4702 22.1578 32.6086 23.0795 32.1029 24.1996C31.5972 25.3198 31.4757 26.5756 31.7574 27.7719C29.5402 27.6608 27.3712 27.0846 25.3911 26.0808C23.4111 25.077 21.6642 23.668 20.2641 21.9452C19.7685 22.7965 19.508 23.7642 19.5094 24.7492C19.5094 26.6826 20.4934 28.3906 21.9894 29.3906C21.1041 29.3627 20.2382 29.1236 19.4641 28.6932V28.7626C19.4643 30.0502 19.9099 31.2981 20.7252 32.2946C21.5405 33.2912 22.6754 33.9752 23.9374 34.2306C23.1156 34.4533 22.2538 34.4861 21.4174 34.3266C21.7732 35.4349 22.4667 36.4042 23.4009 37.0987C24.335 37.7933 25.4629 38.1783 26.6267 38.1999C25.47 39.1083 24.1456 39.7799 22.7292 40.1761C21.3128 40.5724 19.8322 40.6856 18.3721 40.5092C20.921 42.1485 23.8882 43.0187 26.9187 43.0159C37.1761 43.0159 42.7854 34.5186 42.7854 27.1492C42.7854 26.9092 42.7787 26.6666 42.7681 26.4292C43.8599 25.6401 44.8022 24.6626 45.5507 23.5426L45.5494 23.5412Z" fill="white"/>
<path opacity="0.1" d="M0 32.5C0 20.8268 0 14.9903 2.36157 10.5721C4.22624 7.08351 7.08351 4.22624 10.5721 2.36157C14.9903 0 20.8268 0 32.5 0C44.1732 0 50.0097 0 54.4279 2.36157C57.9165 4.22624 60.7738 7.08351 62.6384 10.5721C65 14.9903 65 20.8268 65 32.5C65 44.1732 65 50.0097 62.6384 54.4279C60.7738 57.9165 57.9165 60.7738 54.4279 62.6384C50.0097 65 44.1732 65 32.5 65C20.8268 65 14.9903 65 10.5721 62.6384C7.08351 60.7738 4.22624 57.9165 2.36157 54.4279C0 50.0097 0 44.1732 0 32.5Z" fill="#F2F2F2"/>
</svg>
