<svg width="60" height="60" viewBox="0 0 60 60" fill="none" xmlns="http://www.w3.org/2000/svg">
<path d="M47.5 22.5C47.5 26.125 46.425 29.45 44.575 32.225C41.875 36.225 37.6 39.05 32.625 39.775C31.775 39.925 30.9 40 30 40C29.1 40 28.225 39.925 27.375 39.775C22.4 39.05 18.125 36.225 15.425 32.225C13.575 29.45 12.5 26.125 12.5 22.5C12.5 12.825 20.325 5 30 5C39.675 5 47.5 12.825 47.5 22.5Z" fill="#3862F5" fill-opacity="0.97" stroke="white" stroke-width="1.5" stroke-linecap="round" stroke-linejoin="round"/>
<path d="M53.125 46.175L49 47.15C48.075 47.375 47.35 48.075 47.15 49L46.275 52.675C45.8 54.675 43.25 55.275 41.925 53.7L30 40L18.075 53.725C16.75 55.3 14.2 54.7 13.725 52.7L12.85 49.025C12.625 48.1 11.9 47.375 11 47.175L6.87495 46.2C4.97495 45.75 4.29995 43.375 5.67495 42L15.425 32.25C18.125 36.25 22.4 39.075 27.375 39.8C28.225 39.95 29.1 40.025 30 40.025C30.9 40.025 31.775 39.95 32.625 39.8C37.6 39.075 41.875 36.25 44.575 32.25L54.325 42C55.7 43.35 55.025 45.725 53.125 46.175Z" fill="#3862F5" fill-opacity="0.97" stroke="white" stroke-width="1.5" stroke-linecap="round" stroke-linejoin="round"/>
<path d="M31.4499 14.95L32.9249 17.9C33.1249 18.3 33.6499 18.7 34.1249 18.775L36.7999 19.225C38.4999 19.5 38.8999 20.75 37.6749 21.975L35.5999 24.05C35.2499 24.4 35.0499 25.075 35.1749 25.575L35.7749 28.15C36.2499 30.175 35.1749 30.975 33.3749 29.9L30.8749 28.425C30.4249 28.15 29.6749 28.15 29.2249 28.425L26.7249 29.9C24.9249 30.95 23.8499 30.175 24.3249 28.15L24.9249 25.575C25.0249 25.1 24.8499 24.4 24.4999 24.05L22.4249 21.975C21.1999 20.75 21.5999 19.525 23.2999 19.225L25.9749 18.775C26.4249 18.7 26.9499 18.3 27.1499 17.9L28.6249 14.95C29.3499 13.35 30.6499 13.35 31.4499 14.95Z" fill="#3862F5" fill-opacity="0.97" stroke="white" stroke-width="1.5" stroke-linecap="round" stroke-linejoin="round"/>
</svg>
