<svg width="758" height="637" viewBox="0 0 758 637" fill="none" xmlns="http://www.w3.org/2000/svg">
<path d="M26 608C26 615.18 20.1797 621 13 621C5.8203 621 0 615.18 0 608C0 600.82 5.8203 595 13 595C20.1797 595 26 600.82 26 608ZM6.36959 608C6.36959 611.662 9.33812 614.63 13 614.63C16.6619 614.63 19.6304 611.662 19.6304 608C19.6304 604.338 16.6619 601.37 13 601.37C9.33812 601.37 6.36959 604.338 6.36959 608Z" fill="#1140E7"/>
<path d="M64 21C64 28.1797 58.1797 34 51 34C43.8203 34 38 28.1797 38 21C38 13.8203 43.8203 8 51 8C58.1797 8 64 13.8203 64 21ZM44.3696 21C44.3696 24.6619 47.3381 27.6304 51 27.6304C54.6619 27.6304 57.6304 24.6619 57.6304 21C57.6304 17.3381 54.6619 14.3696 51 14.3696C47.3381 14.3696 44.3696 17.3381 44.3696 21Z" fill="#1140E7"/>
<path d="M543 184C543 191.18 537.18 197 530 197C522.82 197 517 191.18 517 184C517 176.82 522.82 171 530 171C537.18 171 543 176.82 543 184ZM523.37 184C523.37 187.662 526.338 190.63 530 190.63C533.662 190.63 536.63 187.662 536.63 184C536.63 180.338 533.662 177.37 530 177.37C526.338 177.37 523.37 180.338 523.37 184Z" fill="#1140E7"/>
<path d="M723 608C723 615.18 717.18 621 710 621C702.82 621 697 615.18 697 608C697 600.82 702.82 595 710 595C717.18 595 723 600.82 723 608ZM703.37 608C703.37 611.662 706.338 614.63 710 614.63C713.662 614.63 716.63 611.662 716.63 608C716.63 604.338 713.662 601.37 710 601.37C706.338 601.37 703.37 604.338 703.37 608Z" fill="#1140E7"/>
<path d="M396 626.831V631.133H390.133V637H385.831V631.133H380V626.831H385.831V621H390.133V626.831H396Z" fill="#1140E7"/>
<path d="M567 495.831V500.133H561.133V506H556.831V500.133H551V495.831H556.831V490H561.133V495.831H567Z" fill="#1140E7"/>
<path d="M758 5.83111V10.1333H752.133V16H747.831V10.1333H742V5.83111H747.831V0H752.133V5.83111H758Z" fill="#1140E7"/>
</svg>
