<svg width="100" height="100" viewBox="0 0 100 100" fill="none" xmlns="http://www.w3.org/2000/svg">
<circle cx="50" cy="50" r="50" fill="#F0EEFF"/>
<path d="M44.0501 70.111L47.9334 66.8444C48.5167 66.3444 49.4834 66.3444 50.0667 66.8444L53.9501 70.111C54.8501 70.561 55.9501 70.111 56.2834 69.1444L57.0167 66.9277C57.2001 66.3944 57.0167 65.611 56.6167 65.211L52.8334 61.411C52.5501 61.1444 52.3334 60.611 52.3334 60.2277V55.4777C52.3334 54.7777 52.8501 54.4444 53.5001 54.711L61.6834 58.2444C62.9667 58.7944 64.0167 58.111 64.0167 56.711V54.561C64.0167 53.4444 63.1834 52.161 62.1501 51.7277L52.8334 47.711C52.5667 47.5944 52.3334 47.2444 52.3334 46.9444V41.9444C52.3334 40.3777 51.1834 38.5277 49.7834 37.811C49.2834 37.561 48.7001 37.561 48.2001 37.811C46.8001 38.5277 45.6501 40.3944 45.6501 41.961V46.961C45.6501 47.261 45.4167 47.611 45.1501 47.7277L35.8501 51.7444C34.8167 52.161 33.9834 53.4444 33.9834 54.561V56.711C33.9834 58.111 35.0334 58.7944 36.3167 58.2444L44.5001 54.711C45.1334 54.4277 45.6667 54.7777 45.6667 55.4777V60.2277C45.6667 60.611 45.4501 61.1444 45.1834 61.411L41.4001 65.211C41.0001 65.611 40.8167 66.3777 41.0001 66.9277L41.7334 69.1444C42.0334 70.111 43.1334 70.5777 44.0501 70.111Z" fill="#13C967"/>
</svg>
