<svg width="100" height="100" viewBox="0 0 100 100" fill="none" xmlns="http://www.w3.org/2000/svg">
<circle cx="50" cy="50" r="50" fill="#F0EEFF"/>
<path d="M46.75 34.2167L36.7167 40.7667C33.5 42.8667 33.5 47.5667 36.7167 49.6667L46.75 56.2167C48.55 57.4001 51.5167 57.4001 53.3167 56.2167L63.3 49.6667C66.5 47.5667 66.5 42.8834 63.3 40.7834L53.3167 34.2334C51.5167 33.0334 48.55 33.0334 46.75 34.2167Z" fill="#FC7777" stroke="#1140E7" stroke-width="1.5" stroke-linecap="round" stroke-linejoin="round"/>
<path d="M39.3834 51.8L39.3667 59.6167C39.3667 61.7334 41 64 43 64.6667L48.3167 66.4334C49.2334 66.7334 50.75 66.7334 51.6834 66.4334L57 64.6667C59 64 60.6334 61.7334 60.6334 59.6167V51.8834" fill="#FC7777"/>
<path d="M39.3834 51.8L39.3667 59.6167C39.3667 61.7334 41 64 43 64.6667L48.3167 66.4334C49.2334 66.7334 50.75 66.7334 51.6834 66.4334L57 64.6667C59 64 60.6334 61.7334 60.6334 59.6167V51.8834" stroke="#1140E7" stroke-width="1.5" stroke-linecap="round" stroke-linejoin="round"/>
<path d="M65.6667 55V45" stroke="#1140E7" stroke-width="1.5" stroke-linecap="round" stroke-linejoin="round"/>
</svg>
