<svg width="100" height="100" viewBox="0 0 100 100" fill="none" xmlns="http://www.w3.org/2000/svg">
<circle cx="50" cy="50" r="50" fill="#F0EEFF"/>
<path d="M60 48.026C59.9 48.0094 59.7834 48.0094 59.6834 48.026C57.3834 47.9427 55.55 46.0594 55.55 43.726C55.55 41.3427 57.4667 39.426 59.85 39.426C62.2334 39.426 64.15 41.3594 64.15 43.726C64.1334 46.0594 62.3 47.9427 60 48.026Z" fill="black"/>
<path d="M58.2834 60.1594C60.5667 60.5427 63.0834 60.1427 64.8501 58.9594C67.2001 57.3927 67.2001 54.8261 64.8501 53.2594C63.0667 52.0761 60.5167 51.676 58.2334 52.076" fill="black"/>
<path d="M39.9498 48.026C40.0498 48.0094 40.1665 48.0094 40.2665 48.026C42.5665 47.9427 44.3998 46.0594 44.3998 43.726C44.3998 41.3427 42.4831 39.426 40.0998 39.426C37.7165 39.426 35.7998 41.3594 35.7998 43.726C35.8165 46.0594 37.6498 47.9427 39.9498 48.026Z" fill="black"/>
<path d="M41.6666 60.1594C39.3832 60.5427 36.8666 60.1427 35.0999 58.9594C32.7499 57.3927 32.7499 54.8261 35.0999 53.2594C36.8832 52.0761 39.4332 51.676 41.7166 52.076" fill="black"/>
<path d="M50 60.4762C49.9 60.4596 49.7834 60.4596 49.6834 60.4762C47.3834 60.3929 45.55 58.5096 45.55 56.1762C45.55 53.7929 47.4667 51.8762 49.85 51.8762C52.2334 51.8762 54.15 53.8096 54.15 56.1762C54.1334 58.5096 52.3 60.4096 50 60.4762Z" fill="black"/>
<path d="M45.15 65.7261C42.8 67.2928 42.8 69.8595 45.15 71.4261C47.8166 73.2095 52.1833 73.2095 54.85 71.4261C57.2 69.8595 57.2 67.2928 54.85 65.7261C52.2 63.9595 47.8166 63.9595 45.15 65.7261Z" fill="black"/>
</svg>
