<svg width="100" height="100" viewBox="0 0 100 100" fill="none" xmlns="http://www.w3.org/2000/svg">
<circle cx="50" cy="50" r="50" fill="#F0EEFF"/>
<path d="M62.5 50.8333C62.5 48.5333 64.3667 46.6666 66.6667 46.6666V45C66.6667 38.3333 65 36.6666 58.3334 36.6666H41.6667C35 36.6666 33.3334 38.3333 33.3334 45V45.8333C35.6334 45.8333 37.5 47.7 37.5 50C37.5 52.3 35.6334 54.1666 33.3334 54.1666V55C33.3334 61.6666 35 63.3333 41.6667 63.3333H58.3334C65 63.3333 66.6667 61.6666 66.6667 55C64.3667 55 62.5 53.1333 62.5 50.8333Z" fill="#EDF9A7" stroke="#1140E7" stroke-width="1.5" stroke-linecap="round" stroke-linejoin="round"/>
<path d="M45 54.5834L55 44.5834L45 54.5834Z" fill="#EDF9A7"/>
<path d="M45 54.5834L55 44.5834" stroke="#1140E7" stroke-width="1.5" stroke-linecap="round" stroke-linejoin="round"/>
<path fill-rule="evenodd" clip-rule="evenodd" d="M54.9908 54.5833H55.0058H54.9908Z" fill="#EDF9A7"/>
<path d="M54.9908 54.5833H55.0058" stroke="#1140E7" stroke-width="2" stroke-linecap="round" stroke-linejoin="round"/>
<path fill-rule="evenodd" clip-rule="evenodd" d="M44.9908 45.4167H45.0058H44.9908Z" fill="#EDF9A7"/>
<path d="M44.9908 45.4167H45.0058" stroke="#1140E7" stroke-width="2" stroke-linecap="round" stroke-linejoin="round"/>
</svg>
