<svg width="38" height="38" viewBox="0 0 38 38" fill="none" xmlns="http://www.w3.org/2000/svg">
<path fill-rule="evenodd" clip-rule="evenodd" d="M19 4.75C15.1297 4.75 14.6452 4.76615 13.1252 4.8355C11.608 4.90485 10.5716 5.14615 9.6653 5.4986C8.7153 5.8558 7.85365 6.4163 7.14115 7.1421C6.41651 7.85378 5.85567 8.71482 5.49765 9.6653C5.1471 10.5716 4.90485 11.609 4.8355 13.1262C4.7671 14.6452 4.75 15.1287 4.75 19C4.75 22.8713 4.76615 23.3548 4.8355 24.8748C4.90485 26.392 5.14615 27.4284 5.4986 28.3347C5.8558 29.2847 6.4163 30.1463 7.1421 30.8588C7.8538 31.5835 8.71483 32.1443 9.6653 32.5023C10.5716 32.8538 11.608 33.0951 13.1252 33.1645C14.6452 33.2338 15.1297 33.25 19 33.25C22.8703 33.25 23.3548 33.2338 24.8748 33.1645C26.392 33.0951 27.4284 32.8538 28.3347 32.5014C29.2847 32.1442 30.1463 31.5837 30.8588 30.8579C31.5835 30.1462 32.1443 29.2852 32.5023 28.3347C32.8538 27.4284 33.0951 26.392 33.1645 24.8748C33.2338 23.3548 33.25 22.8703 33.25 19C33.25 15.1297 33.2338 14.6452 33.1645 13.1252C33.0951 11.608 32.8538 10.5716 32.5014 9.6653C32.1436 8.71441 31.5828 7.853 30.8579 7.14115C30.1462 6.41651 29.2852 5.85567 28.3347 5.49765C27.4284 5.1471 26.391 4.90485 24.8738 4.8355C23.3548 4.7671 22.8713 4.75 19 4.75ZM19 7.31785C22.8048 7.31785 23.256 7.3321 24.7589 7.4005C26.1478 7.46415 26.9021 7.695 27.4046 7.89165C28.0697 8.1491 28.5447 8.4588 29.0434 8.9566C29.5422 9.45535 29.8509 9.93035 30.1084 10.5953C30.3041 11.0979 30.5358 11.8522 30.5995 13.2411C30.6679 14.744 30.6821 15.1952 30.6821 19C30.6821 22.8048 30.6679 23.256 30.5995 24.7589C30.5358 26.1478 30.305 26.9021 30.1084 27.4046C29.8803 28.0236 29.5164 28.5836 29.0434 29.0434C28.5837 29.5165 28.0237 29.8804 27.4046 30.1084C26.9021 30.3041 26.1478 30.5358 24.7589 30.5995C23.256 30.6679 22.8057 30.6821 19 30.6821C15.1943 30.6821 14.744 30.6679 13.2411 30.5995C11.8522 30.5358 11.0979 30.305 10.5953 30.1084C9.97638 29.8803 9.41641 29.5164 8.9566 29.0434C8.48367 28.5836 8.11977 28.0236 7.89165 27.4046C7.69595 26.9021 7.46415 26.1478 7.4005 24.7589C7.3321 23.256 7.31785 22.8048 7.31785 19C7.31785 15.1952 7.3321 14.744 7.4005 13.2411C7.46415 11.8522 7.695 11.0979 7.89165 10.5953C8.1491 9.93035 8.4588 9.45535 8.9566 8.9566C9.41634 8.48354 9.97634 8.11963 10.5953 7.89165C11.0979 7.69595 11.8522 7.46415 13.2411 7.4005C14.744 7.3321 15.1952 7.31785 19 7.31785Z" fill="white"/>
<path fill-rule="evenodd" clip-rule="evenodd" d="M18.9998 23.7548C18.3754 23.7548 17.7571 23.6318 17.1802 23.3928C16.6034 23.1539 16.0792 22.8036 15.6377 22.3621C15.1962 21.9206 14.8459 21.3964 14.607 20.8196C14.368 20.2427 14.245 19.6244 14.245 19C14.245 18.3756 14.368 17.7573 14.607 17.1804C14.8459 16.6036 15.1962 16.0794 15.6377 15.6379C16.0792 15.1964 16.6034 14.8461 17.1802 14.6072C17.7571 14.3682 18.3754 14.2453 18.9998 14.2453C20.2608 14.2453 21.4702 14.7462 22.3619 15.6379C23.2536 16.5296 23.7545 17.739 23.7545 19C23.7545 20.261 23.2536 21.4704 22.3619 22.3621C21.4702 23.2538 20.2608 23.7548 18.9998 23.7548ZM18.9998 11.6755C17.0572 11.6755 15.1942 12.4472 13.8206 13.8208C12.447 15.1944 11.6753 17.0574 11.6753 19C11.6753 20.9426 12.447 22.8056 13.8206 24.1792C15.1942 25.5528 17.0572 26.3245 18.9998 26.3245C20.9424 26.3245 22.8054 25.5528 24.179 24.1792C25.5526 22.8056 26.3243 20.9426 26.3243 19C26.3243 17.0574 25.5526 15.1944 24.179 13.8208C22.8054 12.4472 20.9424 11.6755 18.9998 11.6755ZM28.4551 11.5425C28.4551 12.0017 28.2727 12.4421 27.948 12.7668C27.6233 13.0915 27.183 13.2739 26.7238 13.2739C26.2646 13.2739 25.8242 13.0915 25.4995 12.7668C25.1748 12.4421 24.9924 12.0017 24.9924 11.5425C24.9924 11.0833 25.1748 10.6429 25.4995 10.3182C25.8242 9.99354 26.2646 9.81113 26.7238 9.81113C27.183 9.81113 27.6233 9.99354 27.948 10.3182C28.2727 10.6429 28.4551 11.0833 28.4551 11.5425Z" fill="white"/>
</svg>
