<svg width="38" height="38" viewBox="0 0 38 38" fill="none" xmlns="http://www.w3.org/2000/svg">
<path d="M31.5912 12.5401C31.6105 12.8193 31.6105 13.0984 31.6105 13.3802C31.6105 21.9649 25.0752 31.8656 13.1251 31.8656V31.8604C9.59504 31.8656 6.13827 30.8544 3.1665 28.9479C3.67981 29.0096 4.19569 29.0405 4.71285 29.0418C7.6383 29.0443 10.4801 28.0628 12.7816 26.2553C10.0016 26.2025 7.56369 24.3899 6.71204 21.7436C7.6859 21.9314 8.68936 21.8928 9.64521 21.6317C6.61427 21.0193 4.43369 18.3563 4.43369 15.2636C4.43369 15.2353 4.43369 15.2083 4.43369 15.1813C5.33679 15.6843 6.34797 15.9634 7.38229 15.9943C4.5276 14.0865 3.64765 10.2888 5.37153 7.31958C8.67006 11.3784 13.5368 13.8459 18.7612 14.107C18.2376 11.8506 18.9529 9.48601 20.6407 7.89979C23.2574 5.44004 27.3729 5.56611 29.8326 8.18152C31.2876 7.89464 32.6822 7.36075 33.9584 6.6043C33.4734 8.10819 32.4583 9.38567 31.1024 10.1974C32.3901 10.0456 33.6483 9.70086 34.8332 9.17469C33.9609 10.4817 32.8623 11.6203 31.5912 12.5401Z" fill="white"/>
</svg>
